<svg xmlns="http://www.w3.org/2000/svg" viewBox="0 0 32 32" width="32" height="32"><g id="Group_98668" data-name="Group 98668" transform="translate(-293 -46)"><path id="Path_144433" data-name="Path 144433" d="M129.945,33.711h11.074l-1.984-19.157h-3.466v3.88a.9.9,0,0,1-1.793,0v-3.88h-7.663v3.88a.9.9,0,0,1-1.793,0v-3.88h-3.465L118.87,33.711Zm-5.624-20.865V11.624a5.219,5.219,0,0,1,1.652-3.785,5.8,5.8,0,0,1,7.946,0,5.219,5.219,0,0,1,1.652,3.785v1.222h4.275v0a.879.879,0,0,1,.889.768l2.154,20.8a.811.811,0,0,1,.014.152.876.876,0,0,1-.9.854h-24.12v0c-.029,0-.058,0-.088,0a.865.865,0,0,1-.8-.931l2.155-20.8a.877.877,0,0,1,.9-.836h4.275Zm9.455,0V11.624a3.551,3.551,0,0,0-1.126-2.577,3.946,3.946,0,0,0-5.41,0,3.558,3.558,0,0,0-1.126,2.577v1.222h7.663Z" transform="translate(178.736 41.035)" fill="#20262e" stroke="#20262e" stroke-width="0.4"></path><g id="notifications_24px" transform="translate(293 46)"><g id="Group_96359" data-name="Group 96359"><rect id="Boundary" fill="none" width="32" height="32"></rect></g></g></g></svg>