<svg id="_Trailing_Icon" data-name="??Trailing Icon" xmlns="http://www.w3.org/2000/svg" width="24" height="24" viewBox="0 0 18.832 18.83"><rect id="Boundary" width="18" height="18" fill="none"></rect><path id="Union_2" data-name="Union 2" d="M16.646,17.658l-4.59-4.591c.007,0,1.008-1.01,1.011-1.01l4.591,4.589a.716.716,0,0,1-.544,1.184A.724.724,0,0,1,16.646,17.658ZM6.626,14.3a7.136,7.136,0,1,1,6.084-2.6L11.7,12.709a7.174,7.174,0,0,1-4.526,1.609C6.99,14.318,6.807,14.31,6.626,14.3ZM4.282,2.191A5.734,5.734,0,1,0,7.155,1.42,5.738,5.738,0,0,0,4.282,2.191ZM2.5,7.779a.717.717,0,0,1-.359-.621,5.023,5.023,0,0,1,5.02-5.02.717.717,0,1,1,0,1.434A3.586,3.586,0,0,0,3.573,7.157a.716.716,0,0,1-.36.621.705.705,0,0,1-.359.1A.714.714,0,0,1,2.5,7.779Z" transform="translate(1.001 1.001)" fill="#414c58"></path></svg>