<svg xmlns="http://www.w3.org/2000/svg" width="32" height="32" viewBox="0 0 24 24"><g id="Group_92337" data-name="Group 92337" transform="translate(-36 -631)"><rect id="Boundary" width="24" height="24" transform="translate(36 631)" fill="none"></rect><path id="user" d="M20.8,22.178a.906.906,0,0,1-.959-.959V19.3a2.825,2.825,0,0,0-2.877-2.877H9.294A2.825,2.825,0,0,0,6.418,19.3v1.918a.906.906,0,0,1-.959.959.906.906,0,0,1-.959-.959V19.3a4.748,4.748,0,0,1,4.794-4.794h7.671A4.748,4.748,0,0,1,21.76,19.3v1.918A.906.906,0,0,1,20.8,22.178ZM13.13,12.589A4.748,4.748,0,0,1,8.336,7.794a4.794,4.794,0,0,1,9.589,0A4.748,4.748,0,0,1,13.13,12.589Zm0-7.671a2.825,2.825,0,0,0-2.877,2.877,2.877,2.877,0,1,0,5.753,0A2.825,2.825,0,0,0,13.13,4.918Z" transform="translate(34.371 631.412)" stroke="#fff" stroke-width="0.2"></path></g></svg>